<svg width="157" height="33" viewBox="0 0 157 33" fill="none" xmlns="http://www.w3.org/2000/svg">
<path d="M32.0404 15.8266C32.0404 15.1589 31.9691 14.499 31.8242 13.8469C31.8175 13.7728 31.8169 13.6981 31.8029 13.6251C31.367 11.3258 30.469 9.22198 29.1189 7.31248C28.3612 6.24203 27.5008 5.26256 26.4849 4.42743C26.418 4.36341 26.3546 4.29545 26.2838 4.23704C23.4718 1.91867 20.2486 0.665699 16.6043 0.514623C15.5861 0.472502 14.5701 0.517432 13.5654 0.711752C13.4817 0.718492 13.3969 0.718492 13.3149 0.733655C11.1695 1.13858 9.15384 1.88105 7.3325 3.09976C3.43205 5.70905 1.01877 9.31971 0.226885 13.948C-0.306655 17.0667 0.103328 20.0921 1.42482 22.9879C4.42163 29.5543 11.616 33.8889 19.4085 32.0917C25.6559 30.6506 29.6754 26.6811 31.5305 20.5454C31.9944 19.011 32.1196 17.4267 32.0404 15.8266ZM30.3595 20.2084C28.6617 25.6741 25.1443 29.4077 19.5562 30.768C13.3289 32.2832 8.17774 30.2496 4.23404 25.2377C2.19031 22.6408 1.15749 19.6406 1.21814 16.3225C1.29396 12.1974 2.90413 8.71316 5.85713 5.86237C7.85762 3.93096 10.2366 2.65945 12.9622 2.05852C12.9976 2.05065 13.0301 2.03156 13.0644 2.01752C13.0801 2.03212 13.0964 2.04335 13.1133 2.05178C13.1284 2.03268 13.1447 2.0164 13.1621 2.00404C13.8327 1.91306 14.5005 1.79624 15.1778 1.75974C19.0299 1.55531 22.4311 2.71224 25.4156 5.13957C26.3776 5.9219 27.233 6.816 27.9518 7.81344C29.4334 9.87122 30.4494 12.1368 30.7605 14.6849C30.8728 15.6014 30.8874 16.5186 30.8605 17.4385H30.8588C30.8588 17.4385 30.8537 17.4413 30.8509 17.4435C30.8537 17.4475 30.8565 17.4514 30.8599 17.4548C30.7582 18.3848 30.6381 19.3126 30.3595 20.2084Z" fill="white"/>
<path d="M28.4876 16.3248C24.4041 12.2733 20.3183 8.22398 16.2387 4.16852C16.0814 4.01239 16.0039 3.98544 15.8298 4.15954C12.8459 7.14118 9.85418 10.115 6.86355 13.0904C5.78355 14.1648 4.70187 15.2381 3.62075 16.3119C3.49214 16.3933 3.38656 16.4781 3.5747 16.6084C3.74038 16.7662 3.90606 16.9235 4.07174 17.0813C4.14699 17.1633 4.21888 17.2487 4.29751 17.3273C8.12888 21.1384 11.9631 24.9479 15.7894 28.7652C15.9781 28.9534 16.0691 28.991 16.2808 28.7787C18.4722 26.5805 20.6788 24.397 22.8787 22.2066C23.7857 21.3036 24.6854 20.3937 25.5885 19.4867C26.5759 18.5179 27.5615 17.5474 28.5522 16.5826C28.6977 16.4405 28.5556 16.3927 28.4876 16.3248ZM16.6436 26.4823V23.9022C16.6425 22.9761 16.6425 22.0494 16.6414 21.1233V21.1025C16.6408 20.6234 16.6408 20.1449 16.6397 19.6664V19.6462C16.6391 19.1144 16.6385 18.5825 16.6374 18.0507V18.045C16.6374 17.8311 16.6369 17.6176 16.6363 17.4037V17.3806C16.6363 17.2397 16.6425 17.1549 16.8463 17.1554C18.8418 17.1616 20.8372 17.1627 22.8321 17.1633H22.8489C23.8402 17.1633 24.8315 17.1633 25.8227 17.1639C25.8575 17.1639 25.8924 17.17 25.9901 17.1785C22.8894 20.3089 19.7994 23.3799 16.6436 26.4823ZM16.6459 6.55822C16.7705 6.59585 16.8362 6.68739 16.9115 6.76096C17.9342 7.76289 18.9552 8.76707 19.9774 9.76956C20.0437 9.83471 20.1155 9.89368 20.1846 9.95546C20.2178 9.98803 20.2509 10.02 20.284 10.0521C20.4037 10.2026 20.5379 10.339 20.6923 10.4542C20.7109 10.5036 20.7446 10.5379 20.7945 10.5553C20.8198 10.612 20.8603 10.653 20.9175 10.6766C21.3758 11.1416 21.8296 11.6106 22.2924 12.0711C23.2915 13.064 24.2951 14.053 25.2965 15.0432C25.3184 15.0993 25.3571 15.1392 25.4133 15.1611C25.4318 15.2139 25.4672 15.2499 25.52 15.2684C25.5419 15.3251 25.5807 15.3644 25.6374 15.3863C25.6565 15.4386 25.6919 15.4739 25.7441 15.493C25.8059 15.5711 25.8677 15.6486 25.9283 15.725C25.8688 15.7997 25.798 15.7677 25.7385 15.7677C22.8096 15.7682 19.8802 15.7643 16.9514 15.7705C16.72 15.771 16.6357 15.7385 16.6369 15.4734C16.6414 13.9896 16.6419 12.5052 16.6408 11.0214V11.0057C16.6447 10.8018 16.6492 10.6002 16.6593 10.3963C16.6683 10.2059 16.6537 10.0133 16.6402 9.82011V9.80494C16.6391 8.77437 16.6374 7.74436 16.6369 6.71379C16.6369 6.66886 16.6419 6.62337 16.6459 6.55822ZM15.3058 6.66212C15.3406 6.7267 15.353 6.80084 15.3496 6.88957C15.3479 6.93282 15.3451 6.99123 15.3592 7.03616V7.66012C15.3171 7.72863 15.3491 7.82692 15.3491 7.90105C15.3429 10.4463 15.344 12.9916 15.344 15.5368C15.344 15.5784 15.3463 15.6194 15.3513 15.6587C15.3339 15.7306 15.2834 15.7733 15.1379 15.7727C12.2107 15.7637 9.28357 15.7665 6.35585 15.7665H6.14299C9.20045 12.6962 12.2141 9.68532 15.3058 6.66212ZM15.3603 26.2801C15.3603 26.3048 15.3519 26.3289 15.339 26.4036C12.2253 23.3546 9.17686 20.2915 6.0902 17.161H7.71665C10.1765 17.161 12.637 17.1622 15.0975 17.1594C15.2626 17.1594 15.367 17.1526 15.3665 17.3834C15.3575 20.3488 15.3609 23.3142 15.3603 26.2801Z" fill="white"/>
<path d="M11.58 26.0403C10.9724 26.0425 10.3641 26.0464 9.75646 26.033C7.90423 25.9908 6.57432 24.6469 6.55129 22.7975C6.54399 22.1898 6.54904 21.5821 6.5468 20.9739C6.5468 20.8829 6.56477 20.7863 6.48727 20.7105C6.12895 20.3612 5.77232 20.0113 5.37301 19.6204C5.42243 20.8037 5.34493 21.9258 5.42019 23.0474C5.57688 25.3731 7.32633 27.0939 9.65368 27.1663C10.7095 27.1989 11.7671 27.1759 12.824 27.177C12.8656 27.177 12.9189 27.1927 12.9459 27.1242C12.61 26.8069 12.2691 26.4896 11.9344 26.1655C11.8316 26.0655 11.7182 26.0397 11.58 26.0403Z" fill="white"/>
<path d="M20.5154 6.96427C21.1051 6.95753 21.6943 6.95472 22.2834 6.96652C23.9671 6.99909 25.3611 8.26161 25.5442 9.93693C25.6172 10.6069 25.5576 11.2831 25.5678 11.956C25.5689 12.0481 25.5369 12.1497 25.6003 12.2289C25.9328 12.6389 26.3203 12.9938 26.7185 13.3521C26.7039 12.116 26.8303 10.8911 26.6455 9.67633C26.3473 7.71179 24.8214 6.14543 22.9433 5.89775C21.6898 5.73208 20.4267 5.87304 19.1681 5.82025C19.491 6.16228 19.7977 6.47791 20.0931 6.80309C20.2121 6.93394 20.3464 6.96652 20.5154 6.96427Z" fill="white"/>
<path d="M6.40021 12.3261C6.5131 12.2098 6.54848 12.0834 6.54567 11.9239C6.53613 11.391 6.53556 10.858 6.5395 10.325C6.55466 8.41325 7.94916 7.00134 9.8626 6.96596C10.4422 6.95585 11.0218 6.96764 11.6014 6.96708C11.6845 6.96708 11.8002 6.9873 11.8457 6.94293C12.2107 6.58068 12.5629 6.20608 12.9111 5.84215C11.8086 5.84215 10.6949 5.79498 9.58628 5.85226C7.39147 5.96627 5.65831 7.65787 5.4303 9.84594C5.31011 11.0023 5.40895 12.1626 5.42524 13.3555C5.74986 13.0118 6.0711 12.6653 6.40021 12.3261Z" fill="white"/>
<path d="M26.7118 21.5232C26.7213 20.9031 26.714 20.2831 26.714 19.5929C26.358 19.9596 26.0232 20.25 25.7424 20.5948C25.5801 20.6925 25.5414 20.8397 25.5408 21.0228C25.5397 21.7804 25.6127 22.5436 25.5099 23.2945C25.2976 24.8463 24.0373 25.965 22.4552 26.0302C21.792 26.0577 21.127 26.0358 20.4626 26.0369C20.3615 26.0375 20.2599 26.0195 20.1751 26.1077C19.8353 26.4598 19.491 26.808 19.1164 27.1905C20.3868 27.159 21.619 27.2388 22.8495 27.1365C23.0163 27.1231 23.1831 27.0882 23.3465 27.0512C25.1825 26.6328 26.6343 24.9153 26.6562 23.1389C26.6668 23.1131 26.6781 23.0884 26.6781 23.0592V23.012C26.7539 22.5178 26.7045 22.0191 26.7118 21.5232Z" fill="white"/>
<path d="M146.876 24.3537V7.96344H150.621V10.6951H150.792C151.09 9.74901 151.603 9.01984 152.328 8.50765C153.061 7.98834 153.897 7.72868 154.836 7.72868C155.049 7.72868 155.288 7.73935 155.551 7.76069C155.821 7.77492 156.045 7.79982 156.223 7.83539V11.3887C156.059 11.3318 155.8 11.282 155.444 11.2394C155.096 11.1896 154.758 11.1647 154.43 11.1647C153.726 11.1647 153.093 11.3176 152.531 11.6235C151.976 11.9223 151.539 12.3384 151.219 12.872C150.898 13.4055 150.738 14.0209 150.738 14.718V24.3537H146.876Z" fill="white"/>
<path d="M136.92 24.6738C135.277 24.6738 133.858 24.3323 132.663 23.6494C131.475 22.9594 130.561 21.9848 129.92 20.7256C129.28 19.4594 128.96 17.969 128.96 16.2546C128.96 14.5686 129.28 13.0889 129.92 11.8156C130.568 10.5351 131.471 9.53915 132.631 8.82777C133.79 8.10927 135.153 7.75003 136.718 7.75003C137.728 7.75003 138.681 7.91365 139.577 8.24088C140.481 8.561 141.278 9.05897 141.968 9.73478C142.665 10.4106 143.213 11.2714 143.611 12.3171C144.009 13.3557 144.209 14.5935 144.209 16.0305V17.215H130.774V14.6113H140.506C140.499 13.8715 140.339 13.2134 140.026 12.6372C139.713 12.0539 139.275 11.595 138.713 11.2607C138.158 10.9263 137.511 10.7592 136.771 10.7592C135.981 10.7592 135.288 10.9512 134.69 11.3354C134.093 11.7124 133.627 12.2104 133.292 12.8293C132.965 13.4411 132.798 14.1133 132.791 14.8461V17.1189C132.791 18.0722 132.965 18.8903 133.314 19.5732C133.662 20.249 134.15 20.7683 134.776 21.1311C135.402 21.4868 136.134 21.6647 136.974 21.6647C137.536 21.6647 138.044 21.5864 138.5 21.4299C138.955 21.2663 139.35 21.028 139.684 20.715C140.019 20.402 140.271 20.0143 140.442 19.5519L144.049 19.9573C143.821 20.9106 143.387 21.7429 142.747 22.4543C142.114 23.1586 141.303 23.7063 140.314 24.0976C139.325 24.4817 138.194 24.6738 136.92 24.6738Z" fill="white"/>
<path d="M123.93 24.5884C123.282 24.5884 122.727 24.3608 122.265 23.9055C121.803 23.4502 121.575 22.8954 121.582 22.2409C121.575 21.6006 121.803 21.0529 122.265 20.5976C122.727 20.1423 123.282 19.9147 123.93 19.9147C124.556 19.9147 125.1 20.1423 125.562 20.5976C126.032 21.0529 126.27 21.6006 126.277 22.2409C126.27 22.6748 126.156 23.0696 125.936 23.4253C125.722 23.781 125.438 24.0656 125.082 24.279C124.733 24.4853 124.349 24.5884 123.93 24.5884Z" fill="white"/>
<path d="M107.703 14.75V24.3537H103.84V7.96344H107.532V10.7485H107.724C108.101 9.83082 108.702 9.10165 109.528 8.561C110.36 8.02035 111.388 7.75003 112.611 7.75003C113.742 7.75003 114.728 7.9919 115.567 8.47564C116.414 8.95938 117.068 9.66009 117.531 10.5778C118 11.4955 118.231 12.6088 118.224 13.9177V24.3537H114.361V14.5153C114.361 13.4197 114.077 12.5625 113.508 11.9436C112.946 11.3247 112.167 11.0153 111.171 11.0153C110.495 11.0153 109.894 11.1647 109.367 11.4634C108.848 11.7551 108.439 12.1784 108.14 12.7333C107.849 13.2881 107.703 13.9604 107.703 14.75Z" fill="white"/>
<path d="M89.9928 14.75V24.3537H86.13V7.96344H89.8221V10.7485H90.0142C90.3912 9.83082 90.9923 9.10165 91.8175 8.561C92.6498 8.02035 93.6778 7.75003 94.9014 7.75003C96.0325 7.75003 97.0177 7.9919 97.8572 8.47564C98.7037 8.95938 99.3582 9.66009 99.8206 10.5778C100.29 11.4955 100.521 12.6088 100.514 13.9177V24.3537H96.6514V14.5153C96.6514 13.4197 96.3668 12.5625 95.7977 11.9436C95.2357 11.3247 94.4568 11.0153 93.4608 11.0153C92.785 11.0153 92.1839 11.1647 91.6575 11.4634C91.1382 11.7551 90.7291 12.1784 90.4303 12.7333C90.1387 13.2881 89.9928 13.9604 89.9928 14.75Z" fill="white"/>
<path d="M74.1929 24.6845C73.1543 24.6845 72.2188 24.4995 71.3865 24.1296C70.5613 23.7526 69.9068 23.1977 69.4231 22.465C68.9465 21.7322 68.7081 20.8288 68.7081 19.7546C68.7081 18.8298 68.8789 18.0651 69.2203 17.4604C69.5618 16.8557 70.0277 16.372 70.6182 16.0092C71.2086 15.6464 71.8738 15.3725 72.6136 15.1875C73.3606 14.9955 74.1324 14.8567 74.9292 14.7714C75.8895 14.6718 76.6685 14.5829 77.2661 14.5046C77.8636 14.4192 78.2976 14.2912 78.5679 14.1205C78.8453 13.9426 78.9841 13.6687 78.9841 13.2988V13.2348C78.9841 12.4309 78.7457 11.8085 78.2691 11.3674C77.7925 10.9263 77.106 10.7058 76.2097 10.7058C75.2635 10.7058 74.513 10.9121 73.9581 11.3247C73.4104 11.7373 73.0405 12.2246 72.8484 12.7866L69.2417 12.2744C69.5262 11.2785 69.9957 10.4462 70.6502 9.77746C71.3047 9.10165 72.105 8.59657 73.0511 8.26222C73.9973 7.92076 75.043 7.75003 76.1883 7.75003C76.978 7.75003 77.764 7.84251 78.5466 8.02747C79.3291 8.21242 80.044 8.51832 80.6914 8.94515C81.3387 9.36486 81.858 9.93753 82.2493 10.6631C82.6477 11.3887 82.8469 12.2958 82.8469 13.3842V24.3537H79.1334V22.1022H79.0054C78.7706 22.5574 78.4398 22.9843 78.013 23.3826C77.5933 23.7739 77.0633 24.0905 76.4231 24.3323C75.7899 24.5671 75.0466 24.6845 74.1929 24.6845ZM75.1959 21.8461C75.9714 21.8461 76.6436 21.6931 77.2127 21.3872C77.7818 21.0742 78.2193 20.6616 78.5252 20.1494C78.8382 19.6372 78.9947 19.0788 78.9947 18.4741V16.5427C78.8738 16.6423 78.6675 16.7348 78.3758 16.8201C78.0913 16.9055 77.7711 16.9802 77.4155 17.0442C77.0598 17.1083 76.7076 17.1652 76.3591 17.215C76.0105 17.2648 75.7081 17.3074 75.452 17.343C74.8758 17.4213 74.3601 17.5493 73.9048 17.7272C73.4495 17.905 73.0903 18.154 72.827 18.4741C72.5638 18.7871 72.4322 19.1926 72.4322 19.6906C72.4322 20.402 72.6919 20.9391 73.2112 21.3019C73.7305 21.6647 74.3921 21.8461 75.1959 21.8461Z" fill="white"/>
<path d="M66.1052 2.50003V24.3537H62.2424V2.50003H66.1052Z" fill="white"/>
<path d="M44.0629 30.5V7.96344H47.8617V10.6738H48.0858C48.285 10.2754 48.566 9.85216 48.9288 9.40399C49.2916 8.94871 49.7824 8.561 50.4013 8.24088C51.0202 7.91365 51.8099 7.75003 52.7702 7.75003C54.0365 7.75003 55.1783 8.0737 56.1955 8.72106C57.2199 9.36131 58.0309 10.311 58.6285 11.5701C59.2331 12.8222 59.5355 14.3588 59.5355 16.1799C59.5355 17.9797 59.2402 19.5092 58.6498 20.7683C58.0594 22.0275 57.2555 22.9878 56.2382 23.6494C55.2209 24.311 54.0685 24.6418 52.7809 24.6418C51.8419 24.6418 51.0629 24.4853 50.444 24.1723C49.8251 23.8593 49.3271 23.4822 48.9501 23.0412C48.5802 22.593 48.2921 22.1697 48.0858 21.7714H47.9257V30.5H44.0629ZM47.851 16.1586C47.851 17.2185 48.0004 18.1469 48.2992 18.9436C48.6051 19.7404 49.0426 20.3628 49.6117 20.811C50.1879 21.2521 50.8851 21.4726 51.7032 21.4726C52.5568 21.4726 53.2718 21.2449 53.848 20.7897C54.4242 20.3273 54.8581 19.6977 55.1498 18.9009C55.4486 18.0971 55.598 17.183 55.598 16.1586C55.598 15.1413 55.4521 14.2378 55.1605 13.4482C54.8688 12.6586 54.4349 12.0397 53.8586 11.5915C53.2824 11.1433 52.5639 10.9192 51.7032 10.9192C50.878 10.9192 50.1772 11.1362 49.601 11.5701C49.0248 12.0041 48.5873 12.6123 48.2885 13.3948C47.9969 14.1774 47.851 15.0986 47.851 16.1586Z" fill="white"/>
</svg>
